<?xml version="1.0" encoding="utf-8"?>
<!-- Generator: Adobe Illustrator 23.1.0, SVG Export Plug-In . SVG Version: 6.00 Build 0)  -->
<svg version="1.1" xmlns="http://www.w3.org/2000/svg" xmlns:xlink="http://www.w3.org/1999/xlink" x="0px" y="0px"
	 viewBox="0 0 500 500" style="enable-background:new 0 0 500 500;" xml:space="preserve">
<style type="text/css">
	.st0{fill:#212529;}
	.st1{fill:#F5F5F5;}
	.st2{fill:#EBEBEB;}
	.st3{fill:#27DEBF;}
	.st4{fill:#FFFFFF;}
	.st5{opacity:0.2;}
	.st6{fill:#E0E0E0;}
	.st7{fill:#F0F0F0;}
	.st8{fill:#455A64;}
	.st9{fill:#37474F;}
	.st10{fill:#263238;}
	.st11{fill:#FFFFFF;stroke:#27DEBF;stroke-miterlimit:10;}
	.st12{fill:#27DEBF;stroke:#27DEBF;stroke-miterlimit:10;}
	.st13{opacity:0.7;fill:#FFFFFF;}
	.st14{opacity:0.1;}
	.st15{opacity:0.2;fill:#FFFFFF;}
	.st16{fill:#FFA8A7;}
	.st17{fill:#F28F8F;}
	.st18{opacity:0.3;}
</style>
<g id="Floor">
	<rect x="0" class="st0" width="500" height="500"/>
	<path id="XMLID_413_" class="st1" d="M125.23,385.24c68.91,32.84,180.63,32.84,249.53,0c68.91-32.84,68.91-86.09,0-118.93
		c-68.91-32.84-180.63-32.84-249.53,0C56.33,299.15,56.33,352.4,125.23,385.24z"/>
</g>
<g id="Shadow">
	<ellipse id="XMLID_182_" class="st2" cx="374.53" cy="350.02" rx="22.98" ry="10.95"/>
</g>
<g id="Plants">
	<g>
		<g>
			<g id="XMLID_366_">
				<path id="XMLID_374_" class="st3" d="M316.8,297.08c0,0-4.37-7.07-4.8-14.77c-0.42-7.7,1.27-10.89,3.59-11.81
					c2.32-0.92,2.49,1.91,3.69,3.58c1.2,1.67,3.62,0.72,4.51-4.49c0.89-5.21,4.18-14.03,10.97-15.71c7.5-1.86,3.48,6.94,1.59,10.37
					c-1.88,3.43-3.35,8.11-2.11,9.38c1.24,1.27,3.17-1.08,5.01,1.1c2.23,2.63-4.7,12.09-8.68,14.39L316.8,297.08z"/>
				<path class="st4" d="M322.79,294.11c-0.01,0-0.02,0-0.03,0c-0.28-0.01-0.49-0.25-0.47-0.53c1.1-20.48,11.09-34.66,11.2-34.8
					c0.16-0.23,0.47-0.28,0.7-0.12c0.22,0.16,0.28,0.47,0.12,0.7c-0.1,0.14-9.92,14.1-11.01,34.27
					C323.28,293.9,323.06,294.11,322.79,294.11z"/>
				<path class="st4" d="M323.36,288.2c-0.08,0-0.17-0.02-0.24-0.06c-2.8-1.55-4.35-6.15-4.42-6.34c-0.09-0.26,0.05-0.54,0.32-0.63
					c0.26-0.09,0.55,0.06,0.63,0.32c0.01,0.04,1.49,4.42,3.95,5.78c0.24,0.13,0.33,0.44,0.2,0.68
					C323.71,288.11,323.54,288.2,323.36,288.2z"/>
				<path class="st4" d="M323.85,285.17c-0.22,0-0.43-0.15-0.48-0.38c-0.07-0.27,0.09-0.54,0.36-0.61c7.22-1.83,9.72-5.61,9.74-5.65
					c0.15-0.23,0.46-0.3,0.69-0.15c0.23,0.15,0.3,0.46,0.15,0.69c-0.11,0.17-2.7,4.15-10.34,6.08
					C323.93,285.17,323.89,285.17,323.85,285.17z"/>
			</g>
			<g>
				<g>
					<path id="XMLID_363_" class="st3" d="M208.02,281.54c0,0-9.59-2.34-10.09-20.29c-0.54-19.38,2.35-41.99-8.96-43.83
						c-11.31-1.84-17.66,12.03-17.51,28.14c0.13,14.15,5.83,44.85,36.56,50.87L208.02,281.54z"/>
					<path id="XMLID_3_" class="st5" d="M208.02,281.54c0,0-9.59-2.34-10.09-20.29c-0.54-19.38,2.35-41.99-8.96-43.83
						c-11.31-1.84-17.66,12.03-17.51,28.14c0.13,14.15,5.83,44.85,36.56,50.87L208.02,281.54z"/>
				</g>
				<path class="st4" d="M208.02,294.58c-0.03,0-0.06,0-0.09-0.01c-6.92-1.26-12.54-5.06-16.73-11.31
					c-12.42-18.53-8.51-53.13-7.22-59.17c0.06-0.27,0.32-0.44,0.59-0.39c0.27,0.06,0.44,0.32,0.39,0.59
					c-1.27,5.98-5.15,40.16,7.08,58.41c4.03,6.01,9.44,9.67,16.08,10.88c0.27,0.05,0.45,0.31,0.4,0.58
					C208.47,294.41,208.26,294.58,208.02,294.58z"/>
				<g id="XMLID_380_">
					<path id="XMLID_361_" class="st3" d="M208.02,340.67c-9.91,1.34-26.02,1.32-35.29-6c-9.28-7.32-7.35-13.62-3.78-16.25
						c3.57-2.63,6.67-5.64,0.53-11.47c-6.14-5.84-16.01-15.22-19.2-29.29c-3.19-14.07-1.62-22.87,4.66-25.8
						c6.09-2.84,7.7,1.67,11.43,11c3.73,9.32,12.12,1.33,19.3,4.24c7.18,2.91,6.89,8.67,7.35,13.62c0.45,4.95,2.82,6.32,6.88,6.32
						c4.06,0,8.12,2.34,8.12,7.04L208.02,340.67z"/>
					<path class="st4" d="M208.02,324.33c-0.04,0-0.09-0.01-0.13-0.02c-0.43-0.12-10.68-3.1-25.61-16.81
						c-15.9-14.6-23.4-36.5-23.48-36.72c-0.09-0.26,0.05-0.55,0.31-0.63c0.26-0.09,0.55,0.05,0.63,0.31
						c0.07,0.22,7.5,21.88,23.21,36.3c14.72,13.53,25.1,16.56,25.2,16.59c0.27,0.08,0.42,0.35,0.35,0.62
						C208.44,324.19,208.24,324.33,208.02,324.33z"/>
					<path class="st4" d="M186.43,310.99c-0.2,0-0.39-0.12-0.47-0.32c-3.21-8.25-3.94-25.88-3.97-26.62
						c-0.01-0.28,0.2-0.51,0.48-0.52c0.26,0,0.51,0.2,0.52,0.48c0.01,0.18,0.75,18.21,3.9,26.3c0.1,0.26-0.03,0.55-0.28,0.65
						C186.56,310.98,186.49,310.99,186.43,310.99z"/>
					<path class="st4" d="M186.35,322.85c-1.55,0-2.63-0.12-2.76-0.14c-0.27-0.03-0.47-0.28-0.44-0.56
						c0.03-0.27,0.28-0.48,0.56-0.44c0.09,0.01,9.4,1.06,13.67-3.3c0.19-0.2,0.51-0.2,0.71-0.01c0.2,0.19,0.2,0.51,0.01,0.71
						C194.97,322.31,189.61,322.85,186.35,322.85z"/>
				</g>
			</g>
		</g>
		<g id="XMLID_292_">
			<g id="XMLID_378_">
				<g>
					<path id="XMLID_372_" class="st3" d="M119.95,351.59l8.12-4.69c0,0,6.7-4.93,10.02-14.07c2.51-6.92,2.17-12.18,0.36-14.82
						c-2.22-3.25-7.95-2.68-8.17,4.17C129.84,335.65,125.91,344.98,119.95,351.59z"/>
					<path id="XMLID_1_" class="st5" d="M119.95,351.59l8.12-4.69c0,0,6.7-4.93,10.02-14.07c2.51-6.92,2.17-12.18,0.36-14.82
						c-2.22-3.25-7.95-2.68-8.17,4.17C129.84,335.65,125.91,344.98,119.95,351.59z"/>
				</g>
				<path class="st4" d="M119.95,352.09c-0.16,0-0.31-0.08-0.41-0.22c-0.16-0.23-0.1-0.54,0.13-0.7
					c18.8-13.01,15.16-31.13,15.12-31.31c-0.06-0.27,0.11-0.54,0.38-0.59c0.27-0.06,0.54,0.11,0.59,0.38
					c0.04,0.19,3.84,18.94-15.52,32.34C120.15,352.06,120.05,352.09,119.95,352.09z"/>
			</g>
			<g id="XMLID_379_">
				<path id="XMLID_364_" class="st3" d="M103.71,360.97c0,0-2.83-2.3-2.14-5.42c0.68-3.12,2.51-5.36-0.63-9.38
					c-3.14-4.02-3.95-9.38-0.26-12.29c2.85-2.25,7.3,0.94,8.91-5.02c1.17-4.34,0.77-13.95,6.31-17.15c5.54-3.2,8.97,1.62,8.12,8.13
					c-0.76,5.83-1.83,11.45-1.01,12.97c1.62,2.99,4.39,2.59,4.26,8.07c-0.12,5.1-4.94,9.32-4.94,9.32L103.71,360.97z"/>
				<path class="st4" d="M113,356.11c-0.25,0-0.47-0.19-0.5-0.44c-1.43-11.85,1.98-32.31,4.8-38.39c0.12-0.25,0.41-0.36,0.66-0.24
					c0.25,0.12,0.36,0.41,0.24,0.66c-2.77,5.98-6.08,26.52-4.71,37.85c0.03,0.27-0.16,0.52-0.44,0.56
					C113.04,356.11,113.02,356.11,113,356.11z"/>
				<path class="st4" d="M112.73,346.88c-0.07,0-0.15-0.02-0.22-0.05c-3.47-1.7-5.67-7.72-5.76-7.98c-0.09-0.26,0.04-0.55,0.3-0.64
					c0.26-0.09,0.55,0.04,0.64,0.3c0.02,0.06,2.15,5.9,5.26,7.42c0.25,0.12,0.35,0.42,0.23,0.67
					C113.09,346.78,112.91,346.88,112.73,346.88z"/>
				<path class="st4" d="M112.67,350.88c-0.2,0-0.39-0.12-0.46-0.31c-0.1-0.26,0.02-0.55,0.28-0.65c5.84-2.34,9.48-9.3,9.52-9.37
					c0.13-0.25,0.43-0.34,0.67-0.21c0.25,0.13,0.34,0.43,0.22,0.67c-0.15,0.3-3.85,7.36-10.03,9.84
					C112.8,350.87,112.73,350.88,112.67,350.88z"/>
			</g>
		</g>
	</g>
</g>
<g id="Gear">
	<g id="XMLID_133_">
		<g id="XMLID_151_">
			<path id="XMLID_167_" class="st6" d="M179.15,133.49l-1.07-6.23l-5.56,3.66c-0.56-1.07-1.27-1.92-2.12-2.57l2.66-7.2l-4.96-1.11
				l-3.66,6.98c-1.21,0.19-2.49,0.6-3.81,1.24l-1.59-5.26l-5.94,4.67l0.39,6.2c-1.2,1.34-2.3,2.8-3.28,4.34l-4.9-0.24l-3.44,7.71
				l4.21,1.8c-0.44,1.66-0.73,3.3-0.83,4.89l-5.35,4.92l1.07,6.23l5.56-3.66c0.56,1.07,1.27,1.92,2.12,2.57l-2.66,7.2l4.96,1.11
				l5.24-5.11c1.21-0.19,0.92-2.47,2.24-3.11l1.58,5.26l5.94-4.67l-0.15-2.44c1.2-1.34,5.74-4.29,6.72-5.82l1.23-2.03l3.44-7.71
				l-1.6-2.9l-1.78-3.78L179.15,133.49z M161.02,154.04c-4.55,3.58-5.94,4.36-6.77-0.42s1.84-12.08,6.39-15.66
				c4.55-3.58,6.3-3.85,7.13,0.94S165.57,150.46,161.02,154.04z"/>
			<polygon id="XMLID_166_" class="st1" points="168.1,120.04 174.59,123.78 170.92,130.76 164.44,127.02 			"/>
			<polygon id="XMLID_165_" class="st1" points="184.56,131 179,134.66 172.51,130.92 178.07,127.26 			"/>
			<polygon id="XMLID_164_" class="st6" points="183.67,148.83 179.45,147.04 172.97,143.3 177.18,145.09 			"/>
			<polygon id="XMLID_163_" class="st6" points="145.99,169.62 152.48,173.35 155.14,166.15 148.65,162.41 			"/>
			<polygon id="XMLID_162_" class="st6" points="166.49,171.5 160.01,167.76 158.42,162.5 164.91,166.24 			"/>
			<path id="XMLID_159_" class="st2" d="M185.63,137.23l-1.07-6.23l-5.56,3.66c-0.56-1.07-1.27-1.92-2.12-2.57l2.66-7.2l-4.96-1.11
				l-3.66,6.98c-1.21,0.19-2.49,0.6-3.81,1.24l-1.58-5.26l-5.94,4.67l0.39,6.2c-1.2,1.34-2.3,2.8-3.28,4.34l-4.9-0.24l-3.44,7.71
				l4.21,1.8c-0.44,1.66-0.73,3.3-0.83,4.89l-5.35,4.92l1.07,6.23l5.56-3.66c0.56,1.07,1.27,1.92,2.12,2.57l-2.66,7.2l4.96,1.11
				l3.66-6.98c1.21-0.19,2.49-0.6,3.81-1.24l1.59,5.26l5.94-4.67l-0.39-6.2c1.2-1.34,2.3-2.8,3.28-4.34l4.9,0.24l3.44-7.71
				l-4.21-1.8c0.45-1.66,0.73-3.3,0.83-4.89L185.63,137.23z M167.5,157.78c-4.55,3.58-8.91,2.61-9.74-2.18s2.2-11.56,6.75-15.14
				c4.55-3.58,8.91-2.61,9.74,2.18C175.08,147.42,172.06,154.2,167.5,157.78z"/>
			<polygon id="XMLID_158_" class="st1" points="165.53,126.74 159.04,123 153.1,127.67 159.59,131.41 			"/>
			<polygon id="XMLID_157_" class="st6" points="153.1,127.67 153.49,133.87 159.98,137.61 159.59,131.41 			"/>
			<polygon id="XMLID_156_" class="st1" points="156.7,141.95 150.21,138.21 145.31,137.96 151.79,141.7 			"/>
			<polygon id="XMLID_155_" class="st6" points="145.31,137.96 141.87,145.67 148.35,149.41 151.79,141.7 			"/>
			<polygon id="XMLID_154_" class="st1" points="151.73,156.1 145.25,152.35 139.9,157.27 146.39,161.01 			"/>
			<polygon id="XMLID_153_" class="st6" points="147.46,167.25 140.97,163.51 139.9,157.27 146.39,161.01 			"/>
			<polygon id="XMLID_152_" class="st1" points="174.59,123.78 168.1,120.04 173.06,121.15 179.54,124.89 			"/>
		</g>
		<g id="XMLID_134_">
			<path id="XMLID_148_" class="st6" d="M150.09,105.21V95.9l-7.41,3.34c-0.45-1.72-1.13-3.19-2-4.41l4.67-9.41l-5.7-3.29
				l-5.82,8.75c-1.49-0.15-3.11,0-4.82,0.47l-0.81-8.09l-8.06,4.66l-0.81,9.03c-1.71,1.5-3.33,3.22-4.82,5.09l-5.82-2.03l-5.7,9.88
				l4.67,4.02c-0.87,2.23-1.56,4.49-2,6.72l-7.41,5.22v9.31l7.41-3.34c0.45,1.72,1.13,3.19,2,4.41l-4.67,9.42l5.7,3.29l5.82-8.75
				c1.49,0.15,3.11,0,4.82-0.47l0.81,8.09l8.06-4.66l0.81-9.03c2.4-0.8,4.97-2.66,6.47-4.53l4.17,1.47l5.7-9.88l-3.5-3.02
				c0.87-2.23,0.97-5.78,0.83-7.73L150.09,105.21z M124.16,128.47c-6.19,3.57-10.03,1.04-10.03-6.11c0-7.14,5.11-15.9,11.3-19.47
				c6.19-3.57,9.94-0.97,9.94,6.17C135.36,116.21,130.35,124.89,124.16,128.47z"/>
			<polygon id="XMLID_147_" class="st1" points="146.13,85.86 139.65,82.13 133.83,90.88 140.31,94.62 			"/>
			<polygon id="XMLID_146_" class="st1" points="156.58,99.64 150.09,95.9 142.68,99.24 149.17,102.98 			"/>
			<polygon id="XMLID_145_" class="st6" points="126.62,151.54 120.13,147.8 119.32,139.71 125.8,143.45 			"/>
			<polygon id="XMLID_144_" class="st6" points="102.98,145.64 109.46,149.38 114.13,139.97 107.64,136.23 			"/>
			<path id="XMLID_141_" class="st2" d="M156.58,108.95v-9.31l-7.41,3.34c-0.45-1.72-1.13-3.19-2-4.41l4.67-9.42l-5.7-3.29
				l-5.82,8.75c-1.49-0.15-3.11,0-4.82,0.47L134.68,87l-8.06,4.66l-0.81,9.03c-1.71,1.5-3.33,3.22-4.82,5.09l-5.82-2.03l-5.7,9.88
				l4.67,4.02c-0.87,2.23-1.55,4.49-2,6.72l-7.41,5.22v9.31l7.41-3.34c0.45,1.72,1.13,3.19,2,4.41l-4.67,9.42l5.7,3.29l5.82-8.75
				c1.49,0.15,3.11,0,4.82-0.47l0.81,8.09l8.06-4.66l0.81-9.03c1.71-1.5,3.33-3.22,4.82-5.09l5.82,2.03l5.7-9.88l-4.67-4.02
				c0.87-2.23,1.56-4.49,2-6.72L156.58,108.95z M130.65,132.21c-6.19,3.57-11.2,0.68-11.2-6.47c0-7.14,5.02-15.83,11.2-19.4
				c6.19-3.57,11.2-0.68,11.2,6.47C141.85,119.95,136.83,128.63,130.65,132.21z"/>
			<polygon id="XMLID_140_" class="st7" points="114.5,102.04 120.98,105.78 115.16,103.74 108.68,100 			"/>
			
				<rect id="XMLID_139_" x="103.37" y="103.07" transform="matrix(0.4996 -0.8662 0.8662 0.4996 -37.9508 147.9271)" class="st1" width="11.41" height="7.49"/>
			<polygon id="XMLID_138_" class="st6" points="102.98,109.88 109.46,113.62 114.13,117.65 107.64,113.91 			"/>
			<polygon id="XMLID_137_" class="st1" points="105.64,120.63 112.13,124.37 104.72,129.58 98.23,125.84 			"/>
			<polygon id="XMLID_136_" class="st6" points="98.23,125.84 104.72,129.58 104.72,138.9 98.23,135.16 			"/>
			<polygon id="XMLID_135_" class="st1" points="134.68,87 128.19,83.26 120.13,87.92 126.62,91.66 			"/>
		</g>
	</g>
</g>
<g id="Device">
	<g>
		<path id="XMLID_362_" class="st6" d="M217.88,354.05l94.02-54.29c0.96-0.55,0.96-1.45,0-2l-8.7-5.03c-0.96-0.55-2.51-0.55-3.46,0
			l-94.05,54.29c-0.96,0.55-0.96,1.45,0,2l8.72,5.04C215.37,354.6,216.92,354.6,217.88,354.05z"/>
		<path id="XMLID_55_" class="st8" d="M309.3,90.2l-84.77,48.94c-2.39,1.38-4.33,4.74-4.33,7.5v201.07c0,2.76,1.94,3.88,4.33,2.5
			l84.77-48.94c2.39-1.38,4.33-4.74,4.33-7.5l0-201.07C313.63,89.94,311.7,88.82,309.3,90.2z"/>
		<path id="XMLID_54_" class="st9" d="M224.54,139.14L309.3,90.2c2.14-1.23,3.91-0.47,4.26,1.68c-0.33-2.58-2.1-5.44-4.26-6.68
			l-3.53-2.04c-2.39-1.38-6.27-1.38-8.66,0l-84.77,48.94c-1.2,0.69-2.28,1.88-3.06,3.23l12.19,7.04
			C222.26,141.01,223.34,139.83,224.54,139.14z"/>
		<path id="XMLID_53_" class="st10" d="M208.02,340.67c0,2.76,1.94,6.12,4.33,7.5l3.53,2.04c2.16,1.25,5.53,1.36,7.92,0.35
			c-2.04,0.77-3.6-0.38-3.6-2.85V146.64c0-1.38,0.48-2.91,1.27-4.27l-12.19-7.04c-0.78,1.36-1.27,2.89-1.27,4.27L208.02,340.67z"/>
		<path id="XMLID_52_" class="st4" d="M226.87,165.93l80.11-46.25c1.44-0.83,2.6-0.16,2.6,1.5l0,148.78c0,1.66-1.16,3.67-2.6,4.5
			l-80.11,46.25c-1.43,0.83-2.6,0.16-2.6-1.5l0-148.79C224.27,168.78,225.43,166.76,226.87,165.93z"/>
		<path id="XMLID_51_" class="st9" d="M266.92,122.29c-0.84,0.49-1.52,1.67-1.52,2.64c0,0.97,0.68,1.37,1.52,0.88
			c0.84-0.49,1.52-1.67,1.52-2.64C268.44,122.2,267.76,121.81,266.92,122.29z"/>
		<path id="XMLID_50_" class="st9" d="M266.92,304.74c-3.32,1.92-6.01,6.58-6.01,10.42c0,3.83,2.69,5.39,6.01,3.47
			c3.32-1.92,6.01-6.58,6.01-10.42C272.94,304.38,270.24,302.82,266.92,304.74z"/>
		<g id="XMLID_47_">
			<path id="XMLID_49_" class="st9" d="M252.53,137.77c-1.68,0.97-3.05,3.33-3.05,5.28c0,1.94,1.36,2.73,3.05,1.76
				c1.68-0.97,3.05-3.33,3.05-5.28C255.58,137.59,254.22,136.8,252.53,137.77z"/>
			<path id="XMLID_48_" class="st9" d="M259.98,137.11c0,1.29,0.97,1.79,2.17,1.1l20.04-11.57c1.2-0.69,2.17-2.3,2.17-3.6
				c0-1.3-0.97-1.79-2.17-1.1l-20.04,11.57C260.95,134.21,259.98,135.82,259.98,137.11z"/>
		</g>
		<path id="XMLID_46_" class="st9" d="M214.76,172.37c1.35,0.78,2.44,2.67,2.44,4.22c0,1.55-1.09,2.18-2.44,1.41
			c-1.35-0.78-2.44-2.67-2.44-4.22S213.42,171.6,214.76,172.37z"/>
		<path id="XMLID_45_" class="st9" d="M214.76,191.15c1.35,0.78,2.44,2.67,2.44,4.22s-1.09,2.18-2.44,1.41
			c-1.35-0.78-2.44-2.67-2.44-4.22C212.33,191,213.42,190.37,214.76,191.15z"/>
		<path id="XMLID_267_" class="st8" d="M214.01,172.75c1.35,0.78,2.44,2.67,2.44,4.22s-1.09,2.18-2.44,1.41
			c-1.35-0.78-2.44-2.67-2.44-4.22C211.57,172.6,212.66,171.97,214.01,172.75z"/>
		<path id="XMLID_44_" class="st8" d="M214.01,191.52c1.35,0.78,2.44,2.67,2.44,4.22c0,1.55-1.09,2.18-2.44,1.41
			c-1.35-0.78-2.44-2.67-2.44-4.22S212.66,190.75,214.01,191.52z"/>
		<g id="XMLID_294_">
			<path id="XMLID_43_" class="st11" d="M325.82,125.89c0-1.66-1.16-2.33-2.6-1.5l-9.59,5.54l-70.52,40.71
				c-1.44,0.83-2.6,2.84-2.6,4.5l0,148.78c0,1.66,1.16,2.33,2.6,1.5l70.54-40.73l9.56-5.52c1.43-0.83,2.6-2.84,2.6-4.5
				L325.82,125.89z"/>
			<path class="st12" d="M241.96,326.28c-0.33,0-0.65-0.08-0.93-0.24c-0.65-0.38-1.01-1.13-1.01-2.12l0-148.78
				c0-1.84,1.25-4.01,2.85-4.93l70.52-40.71l0.5,0.87l-70.52,40.71c-1.27,0.73-2.35,2.6-2.35,4.07l0,148.78
				c0,0.61,0.19,1.06,0.51,1.25c0.33,0.19,0.81,0.12,1.34-0.18l70.54-40.73l0.5,0.87l-70.54,40.73
				C242.88,326.14,242.4,326.28,241.96,326.28z"/>
			<path class="st12" d="M313.91,285.13l-0.5-0.87l9.56-5.52c1.27-0.74,2.35-2.6,2.35-4.07l0-148.79c0-0.61-0.19-1.06-0.51-1.25
				c-0.32-0.19-0.81-0.12-1.34,0.18l-9.59,5.54l-0.5-0.87l9.59-5.54c0.85-0.49,1.68-0.56,2.34-0.18c0.65,0.38,1.01,1.13,1.01,2.11
				l0,148.79c0,1.84-1.25,4.01-2.85,4.93L313.91,285.13z"/>
		</g>
		<g>
			<path id="XMLID_42_" class="st3" d="M283.17,160.46c8.97-5.18,16.25-0.98,16.25,9.38s-7.27,22.96-16.25,28.14
				c-8.97,5.18-16.25,0.98-16.25-9.38C266.92,178.25,274.2,165.65,283.17,160.46z"/>
			<path id="XMLID_41_" class="st3" d="M283.17,168.62c2.91-1.68,5.27-0.32,5.27,3.04c0,3.36-2.36,7.45-5.27,9.13
				c-2.91,1.68-5.27,0.32-5.27-3.04C277.9,174.39,280.26,170.3,283.17,168.62z"/>
		</g>
		<path id="XMLID_274_" class="st3" d="M293.44,186.54c0-5.52-3.88-7.76-8.66-5l-2.99,1.73c-4.78,2.76-8.66,9.48-8.66,15v1.49
			c2.76,0.92,6.25,0.42,10.04-1.77c3.9-2.25,7.47-5.9,10.27-10.16V186.54z"/>
		<g>
			<path id="XMLID_5_" class="st13" d="M283.17,168.62c2.91-1.68,5.27-0.32,5.27,3.04c0,3.36-2.36,7.45-5.27,9.13
				c-2.91,1.68-5.27,0.32-5.27-3.04C277.9,174.39,280.26,170.3,283.17,168.62z"/>
			<path id="XMLID_4_" class="st13" d="M293.44,186.54c0-5.52-3.88-7.76-8.66-5l-2.99,1.73c-4.78,2.76-8.66,9.48-8.66,15v1.49
				c2.76,0.92,6.25,0.42,10.04-1.77c3.9-2.25,7.47-5.9,10.27-10.16V186.54z"/>
		</g>
		<g>
			<path id="XMLID_482_" class="st3" d="M251.73,220.84l20.91-12.07c0.96-0.55,1.73-0.1,1.73,1v0.69c0,1.11-0.78,2.45-1.73,3
				l-20.91,12.07c-0.96,0.55-1.73,0.1-1.73-1v-0.69C250,222.73,250.78,221.39,251.73,220.84z"/>
			<path id="XMLID_7_" class="st14" d="M251.73,220.84l20.91-12.07c0.96-0.55,1.73-0.1,1.73,1v0.69c0,1.11-0.78,2.45-1.73,3
				l-20.91,12.07c-0.96,0.55-1.73,0.1-1.73-1v-0.69C250,222.73,250.78,221.39,251.73,220.84z"/>
		</g>
		<g>
			<path id="XMLID_483_" class="st3" d="M250.87,235.41l63.26-36.52c0.48-0.28,0.87-0.05,0.87,0.5v7.38c0,0.55-0.39,1.22-0.87,1.5
				l-63.26,36.52c-0.48,0.28-0.87,0.05-0.87-0.5v-7.38C250,236.36,250.39,235.69,250.87,235.41z"/>
			<path id="XMLID_10_" class="st15" d="M250.87,235.41l63.26-36.52c0.48-0.28,0.87-0.05,0.87,0.5v7.38c0,0.55-0.39,1.22-0.87,1.5
				l-63.26,36.52c-0.48,0.28-0.87,0.05-0.87-0.5v-7.38C250,236.36,250.39,235.69,250.87,235.41z"/>
		</g>
		<g>
			<path id="XMLID_512_" class="st3" d="M251.73,253.67l20.91-12.07c0.96-0.55,1.73-0.1,1.73,1v0.69c0,1.1-0.78,2.45-1.73,3
				l-20.91,12.07c-0.96,0.55-1.73,0.1-1.73-1v-0.69C250,255.57,250.78,254.22,251.73,253.67z"/>
			<path id="XMLID_8_" class="st14" d="M251.73,253.67l20.91-12.07c0.96-0.55,1.73-0.1,1.73,1v0.69c0,1.1-0.78,2.45-1.73,3
				l-20.91,12.07c-0.96,0.55-1.73,0.1-1.73-1v-0.69C250,255.57,250.78,254.22,251.73,253.67z"/>
		</g>
		<g>
			<path id="XMLID_511_" class="st3" d="M250.87,268.24l63.26-36.52c0.48-0.28,0.87-0.05,0.87,0.5v7.38c0,0.55-0.39,1.22-0.87,1.5
				l-63.26,36.52c-0.48,0.28-0.87,0.05-0.87-0.5v-7.38C250,269.19,250.39,268.52,250.87,268.24z"/>
			<path id="XMLID_11_" class="st15" d="M250.87,268.24l63.26-36.52c0.48-0.28,0.87-0.05,0.87,0.5v7.38c0,0.55-0.39,1.22-0.87,1.5
				l-63.26,36.52c-0.48,0.28-0.87,0.05-0.87-0.5v-7.38C250,269.19,250.39,268.52,250.87,268.24z"/>
		</g>
		<g>
			<path id="XMLID_510_" class="st3" d="M276.1,272.43l24.97-14.42c0.96-0.55,1.73-0.1,1.73,1v7.73c0,1.1-0.78,2.45-1.73,3
				l-24.97,14.42c-0.96,0.55-1.73,0.1-1.73-1v-7.73C274.37,274.33,275.15,272.99,276.1,272.43z"/>
			<path id="XMLID_9_" class="st14" d="M276.1,272.43l24.97-14.42c0.96-0.55,1.73-0.1,1.73,1v7.73c0,1.1-0.78,2.45-1.73,3
				l-24.97,14.42c-0.96,0.55-1.73,0.1-1.73-1v-7.73C274.37,274.33,275.15,272.99,276.1,272.43z"/>
		</g>
	</g>
</g>
<g id="Character">
	<g>
		<path id="XMLID_63_" class="st16" d="M335.3,239.85c0,0-12.29-16.95-13.03-18.96c-0.57-1.52,0.04-3.78,0.18-4.83
			c0.14-1.05,0.34-3.39,0.52-4.04c0.31-1.14-1.17-0.9-1.99,0.13c-0.85,1.06-1.12,3.12-1.54,3.46c-0.42,0.34-3.7-4.43-5.42-6.64
			c-1.71-2.21-2.78-3.54-3.82-2.72c-0.75,0.59-0.19,1.88,1.05,3.75c1.24,1.88,1.79,2.75,1.98,3.15c0.19,0.4-0.83,0.44-1.38,1.28
			c-0.43,0.66-0.03,1.73-0.6,2.24c-0.57,0.51-1.1,1.43-0.48,2.47c0.8,1.32,2.39,3.2,4.23,4.48c1.84,1.27,2.58,1.72,3.66,3.45
			c1.08,1.73,10.87,19.4,11.53,20.46c0.66,1.06,1.93,3.22,3.86,3.28c1.93,0.06,17.73-13.54,18.54-14.22
			c2.6-2.17,3.42-2.49,3.87-0.53c0.14,0.61,0.23,1.31,0.33,2.1c0.31,2.48,2,11.34,2,11.34s7.99,3.87,14.57,1.96
			c6.58-1.91,8.79-4.66,8.79-4.66l-3.29-5.36c0.9-2.21,5.03-11.17,6.33-17.44l-20.6-3.33c-0.42-0.09-1.1-0.26-1.96-0.49
			c-1.13-0.3-3.97-1.3-6.17,0.61C349.38,226.98,335.3,239.85,335.3,239.85"/>
		<path id="XMLID_62_" class="st9" d="M376.14,343.79l-3.69,5.13c0,0,1.71,1,5.36,1.14c3.3,0.13,4.21-0.96,4.33-1.22
			c0.56-1.2-0.31-3.36-0.55-5.21L376.14,343.79z"/>
		<path id="XMLID_61_" class="st9" d="M372.66,346.46c0,0-4.47-0.29-7.57-0.67c-3.09-0.39-5.54,1.12-4.81,2.39
			c0.73,1.27,2.43,2.33,5.08,3.22c2.27,0.76,5,1.32,7.37,2.03c2.43,0.73,3.99,1.56,5.36,1.09c1.54-0.53,2.19-1.14,2.06-2.26
			c-0.13-1.12-1.24-4.72-1.24-4.72L372.66,346.46z"/>
		<path id="XMLID_60_" class="st17" d="M382.15,338.64c0,0-0.56,4.66-0.6,5.66c-0.04,1-4.55,1.32-5.4-0.51l-0.14-5.7L382.15,338.64z
			"/>
		<path id="XMLID_59_" class="st16" d="M377.61,341.5l1.61,7.07c0,0,0.15,0.86-3.53,1.41c-3.68,0.55-9.46-1.93-10.44-2.43
			c-0.98-0.5-1.1-1.5,2.52-1.3c3.62,0.2,4.9,0.21,4.9,0.21l-1.17-3.13L377.61,341.5z"/>
		<path id="XMLID_58_" class="st17" d="M385.19,224.02l2.55-0.7c0,0,5.33,16.87,5.92,18.49c0.59,1.62,1.25,3.36,0.11,5.37
			c-1.37,2.39-8.58,12.02-8.58,12.02l-4.58-4.48l5.19-9.51l-4.59-9.31L385.19,224.02z"/>
		<path id="XMLID_57_" class="st9" d="M358.97,202.09c0,0-2.04-3.27,0.11-7.27c2.53-4.71,8.2-7.02,14.94-6.13
			c3.12,0.41,6.79,2.97,8.81,6.87c2.22,4.29,2.42,12.93,2.97,16.2L358.97,202.09z"/>
		<path id="XMLID_56_" class="st16" d="M358.82,203.94c0,0-1.6,3.05-1.32,3.33c0.28,0.28,1.35,0.5,1.35,0.5L358.82,203.94z"/>
		<path id="XMLID_40_" class="st16" d="M363.68,194.3c-1.74,1.14-4.74,3.21-4.87,10.07c-0.13,7.04,0.86,9.3,1.9,10.12
			c0.7,0.55,4.81,0.27,6.57-0.14c1.76-0.41,6.83-2.92,8.66-6.73c2.15-4.48,1.71-11.04-1.48-12.95
			C369.96,191.98,365.16,193.33,363.68,194.3z"/>
		<g>
			<path id="XMLID_39_" class="st3" d="M382.15,246.82c3.08,4.8,6.02,9.03,6.64,14.42c1.32,11.39-3.01,24.41-3.93,32.83
				c0,0,2.91,3.78,2.91,8.23c0,3.48-5.62,36.33-5.62,36.33s-4.08,1.24-6.15-0.54l-3.86-60.43l2.03-7.36L382.15,246.82z"/>
			<path id="XMLID_38_" class="st5" d="M382.15,246.82c3.08,4.8,6.02,9.03,6.64,14.42c1.32,11.39-3.01,24.41-3.93,32.83
				c0,0,2.91,3.78,2.91,8.23c0,3.48-5.62,36.33-5.62,36.33s-4.08,1.24-6.15-0.54l-3.86-60.43l2.03-7.36L382.15,246.82z"/>
		</g>
		<g>
			<path id="XMLID_37_" class="st3" d="M372.15,277.66l2.03-7.36c0,0,5.63-1.36,11.01-4.37c0,0-2.08,3.79-8.06,5.86l-3.11,9.46
				l-0.27,21.64L372.15,277.66z"/>
			<path id="XMLID_36_" class="st18" d="M372.15,277.66l2.03-7.36c0,0,5.63-1.36,11.01-4.37c0,0-2.08,3.79-8.06,5.86l-3.11,9.46
				l-0.27,21.64L372.15,277.66z"/>
		</g>
		<g>
			<path id="XMLID_35_" class="st3" d="M382.15,246.82c1.65,2.69,5.59,7.3,4.76,11.72c-1.02,5.36-3.9,9.13-12.73,11.75l-8.28,29.98
				c0,0,4.31,4.03,5.63,7.87c1.32,3.84,6.08,33.36,6.08,33.36s-1.47,2.4-6.12,1.82c0,0-16.21-37.02-17.36-39.41
				c-1.14-2.38-1.89-4.17-1.37-8.05c0.52-3.88,6.04-46.35,6.04-46.35L382.15,246.82z"/>
			<path id="XMLID_34_" class="st5" d="M382.15,246.82c1.65,2.69,5.59,7.3,4.76,11.72c-1.02,5.36-3.9,9.13-12.73,11.75l-8.28,29.98
				c0,0,4.31,4.03,5.63,7.87c1.32,3.84,6.08,33.36,6.08,33.36s-1.47,2.4-6.12,1.82c0,0-16.21-37.02-17.36-39.41
				c-1.14-2.38-1.89-4.17-1.37-8.05c0.52-3.88,6.04-46.35,6.04-46.35L382.15,246.82z"/>
		</g>
		<g>
			<path id="XMLID_15_" class="st3" d="M385.19,224.02l-20.6-3.33c-0.42-0.09-1.1-0.26-1.96-0.49l0,0c0,0-0.88,12.92-6.16,15.88h0
				c0.13,0.62,0.23,1.31,0.33,2.1c0.31,2.48,2,11.34,2,11.34s7.99,3.87,14.57,1.96c6.58-1.91,8.79-4.66,8.79-4.66l-3.29-5.36
				C379.75,239.25,383.89,230.29,385.19,224.02z"/>
			<path id="XMLID_14_" class="st13" d="M385.19,224.02l-20.6-3.33c-0.42-0.09-1.1-0.26-1.96-0.49l0,0c0,0-0.88,12.92-6.16,15.88h0
				c0.13,0.62,0.23,1.31,0.33,2.1c0.31,2.48,2,11.34,2,11.34s7.99,3.87,14.57,1.96c6.58-1.91,8.79-4.66,8.79-4.66l-3.29-5.36
				C379.75,239.25,383.89,230.29,385.19,224.02z"/>
		</g>
		<path id="XMLID_13_" class="st3" d="M379.76,239.35c-0.08,0.19-6.62,3.7-8.56,4.23c3.06-0.15,5.61-0.87,7.67-2.12L379.76,239.35z"
			/>
		<path id="XMLID_12_" class="st9" d="M363.17,194.64c0,0-0.96,6.5,1.37,10.32c0,0,0.87-2.59,3.07-2.09c2.21,0.5,2.31,3.37,0.77,5
			c-1.54,1.63-3.25,1.04-3.25,1.04s-0.35,4.7-0.53,8.64c-0.18,3.8-1.24,12.53,3.2,16.04c4.43,3.51,15.55,4.7,20.76-2.59
			c2.9-4.05-0.95-11.21-2.74-19.24c-1.65-7.38-2.57-18.32-10.41-20.08C367.57,189.92,363.17,194.64,363.17,194.64z"/>
	</g>
</g>
<g id="Cloud">
	<path id="XMLID_295_" class="st2" d="M391.9,105.83l-1.65,0.95c0.13-0.61,0.23-1.21,0.23-1.79c0-3.35-2.35-4.7-5.25-3.03
		c-0.84,0.49-1.63,1.19-2.33,2c0-0.01,0-0.02,0-0.02c0-4.5-3.16-6.33-7.06-4.08c-3.9,2.25-7.06,7.73-7.06,12.23
		c0,0.23,0.01,0.45,0.03,0.66c-0.83-0.15-1.81,0.06-2.87,0.67c-2.9,1.67-5.25,5.74-5.25,9.09c0,0.46,0.05,0.88,0.13,1.26l-0.88,0.51
		c-2.39,1.38-4.33,4.08-4.33,6.02c0,1.94,1.94,2.4,4.33,1.02l31.96-18.45c2.39-1.38,4.33-4.08,4.33-6.02
		C396.23,104.9,394.29,104.44,391.9,105.83z"/>
</g>
</svg>
